<svg xmlns="http://www.w3.org/2000/svg" viewBox="0 0 64 64" role="img" aria-label="Safar English Ka"><rect width="64" height="64" rx="14" fill="#0EA5E9"/><path d="M12 44c4-2 8-3 12-3s8 1 12 3 8 3 12 3V24c-4 0-8-1-12-3s-8-3-12-3-8 1-12 3-8 3-12 3v20c4 0 8 0 12 0z" fill="#FFFFFF" opacity=".95"/><path d="M44 14l8 6-10 2 4 6-8-2-2 8-4-6-6 4 2-8-8 2 6-4-6-4 8 2-2-8 6 4 4-6 2 8 8-2-4 6z" fill="#F59E0B" transform="translate(2,0) scale(0.55) translate(20,4)"/><path d="M46 18l-6 4 2 6-4-3-4 5-1-6-6 1 3-5-5-3 6-1-1-6 5 3 4-5 1 6 6-1-3 5z" fill="#F59E0B" opacity="0"/><polygon points="42,16 54,22 44,26 50,32 38,28 40,38 32,30 26,38 28,28 16,32 22,26 12,22 24,20 18,12 28,16 32,8 36,16 46,12" fill="none"/><path d="M46 14L52 18L42 22L46 28L36 24L34 32L30 24L22 28L26 20L18 18L28 16L26 8L34 14L40 8z" fill="#F59E0B"/></svg>
